<?xml version="1.0" encoding="UTF-8" standalone="no"?>
<!-- Created with Inkscape (http://www.inkscape.org/) -->

<svg
   version="1.1"
   id="svg1472"
   width="245.75999"
   height="245.75999"
   viewBox="0 0 245.75999 245.75999"
   xmlns="http://www.w3.org/2000/svg"
   xmlns:svg="http://www.w3.org/2000/svg">
  <defs
     id="defs1476" />
  <g
     id="g1478">
    <path
       style="fill:#000000;stroke:#000000;stroke-width:0.32;stroke-opacity:1"
       d="m 92.9757,207.124 -0.4896,-1.103 -0.2606,-1.526 0.0951,-1.712 0.5084,-1.984 0.9213,-2.257 1.3341,-2.529 1.0695,-2.159 0.119,-0.795 -0.0543,-0.962 -0.4543,-1.964 -1.1223,-2.941 -1.9063,-4.194 -2.8066,-5.718 -4.982,-9.51 -1.8794,-3.2 -1.5396,-2.284 -1.3229,-1.524 -0.7904,-0.535 -1.0662,-0.447 -3.529,-0.822 -6.3396,-1.042 -9.9798,-1.871 -9.4059,-2.105 -3.5762,-1.087 -2.5015,-1.19 -0.9485,-0.697 -0.8006,-0.8 -1.3188,-2.006 -0.3797,-0.843 -0.2282,-0.868 -0.1408,-2.609 0.0327,-1.637 0.1544,-1.208 0.3609,-1.169 0.652,-1.522 0.8696,-2.155 0.2717,-1.58 -0.3349,-1.417 -0.9501,-1.662 -0.9754,-1.784 -0.3634,-1.541 0.0457,-0.729 0.1964,-0.727 0.8412,-1.527 1.0054,-1.426 -1.1968,-2.438 -0.8649,-2.085 -0.351,-1.54 0.05,-0.681 0.2469,-0.594 1.5169,-1.617 1.3341,-1.4 0.3416,-0.577 0.1268,-0.548 -0.0867,-0.562 -0.2987,-0.616 -1.2274,-1.559 -1.4624,-1.871 -1.0339,-1.843 -0.6403,-1.895 -0.2819,-2.024 0.0227,-1.994 0.3488,-1.4634 0.7239,-1.0477 1.1478,-0.7464 5.8583,-2.3323 4.6961,-2.0066 3.8462,-2.1373 1.601,-1.1156 1.3845,-1.1456 1.1667,-1.1748 0.9474,-1.2032 0.9932,-1.7289 0.747,-2.0144 0.5553,-2.4876 0.4178,-3.1482 0.5877,-4.052 0.8308,-3.5868 0.9468,-2.8115 1.2364,-3.1022 1.3124,-2.8907 1.1749,-2.1772 0.6598,-1.4945 0.5484,-1.9356 0.5546,-1.9777 0.8309,-1.7817 1.1839,-1.719 1.6137,-1.7897 2.2042,-1.839 2.5013,-1.4573 2.5554,-0.9595 1.2222,-0.2568 1.1445,-0.0888 1.1632,-0.2881 1.4188,-0.829 2.6923,-1.7168 2.9758,-1.453 3.4265,-1.2601 4.0444,-1.138 5.9269,-1.2739 6.116,-0.9086 6.322,-0.5452 6.543,-0.1839 6.328,0.1911 5.899,0.6067 5.741,1.0609 5.853,1.554 4.138,1.4602 4.199,1.874 4.165,2.2237 4.034,2.5093 3.808,2.7307 3.485,2.888 3.067,2.9812 2.553,3.0102 2.299,3.2846 2.113,3.5007 1.923,3.7101 1.73,3.9125 1.536,4.1082 1.337,4.2971 1.137,4.4791 0.934,4.6543 0.483,4.5327 0.13,5.3966 -0.214,5.2867 -0.553,4.204 -1.137,4.283 -1.465,4.013 -1.642,3.39 -0.842,1.351 -0.83,1.063 -0.451,0.599 0.343,0.121 0.932,0.276 1.476,0.664 1.887,1.269 1.974,1.847 1.797,2.147 1.358,2.169 0.941,2.253 0.751,2.593 0.553,2.845 0.348,3.007 0.137,3.08 -0.083,3.065 -0.308,2.959 -0.542,2.766 -0.982,3.327 -1.196,2.943 -1.429,2.582 -1.683,2.246 -1.959,1.933 -2.255,1.644 -2.572,1.378 -2.91,1.137 -3.948,0.992 -3.958,0.435 -1.865,0.003 -1.726,-0.141 -1.538,-0.289 -1.303,-0.438 -1.433,-0.817 -1.42,-1.105 -1.111,-1.13 -0.507,-0.895 -0.091,-0.267 -0.185,0.021 -0.847,1.056 -1.42,1.578 -2.213,1.924 -2.76,2.07 -3.057,2.018 -7.637,5.171 -7.969,5.949 -3.651,3.231 -4.509,4.358 -3.992,3.85 -2.408,2.01 -0.916,0.44 1.236,-1.1 9.12,-8.727 6.819,-6.438 2.709,-2.329 2.472,-1.941 7.41,-5.533 2.795,-2.308 2.606,-2.471 2.471,-2.586 -1.025,-0.803 -1.592,-1.626 -2.204,-2.647 -2.119,-2.789 -1.337,-2.056 -0.545,-1.151 -0.046,-0.303 1.262,1.847 1.419,2.071 0.157,-0.042 -0.008,-0.383 -0.408,-1.484 -0.756,-1.933 -0.898,-1.772 -0.749,-1.297 -0.403,-0.971 -0.163,-1.019 -0.031,-1.444 v -2.503 l -1.534,-0.551 -1.321,-0.36 -1.022,-0.089 -0.809,0.104 1.554,3.2 1.42,3.339 -0.253,-0.059 -0.466,-0.38 -1.322,-1.428 -1.415,-1.813 -1,-1.596 -1.115,-1.955 -1.39,-2.028 -1.286,-1.919 -1.249,-2.204 -0.89,-1.872 -0.205,-0.924 0.24,0.095 0.332,0.477 2.259,3.194 2.05,2.513 0.146,-1.885 -0.122,-1.628 -0.241,-0.299 -0.437,-0.159 -0.604,-0.231 -0.174,-0.227 0.241,-0.144 0.643,0.017 0.907,0.133 -0.243,-1.709 -0.255,-2.668 -0.012,-0.96 0.49,0.8 0.306,0.418 -0.005,-0.224 -0.506,-2.838 -0.522,-2.563 -0.044,-0.173 0.183,0.054 0.407,0.596 0.496,1.133 0.501,1.248 0.341,0.485 0.244,-0.253 0.21,-0.964 0.191,-2.34 0.067,-3.233 -0.058,-3.07 -0.185,-1.854 -0.168,-0.509 -0.202,-0.052 -1.026,1.681 -1.592,2.659 -1.7,2.403 -1.817,2.154 -1.944,1.913 -2.078,1.68 -2.222,1.455 -2.375,1.237 -2.535,1.029 -4.32,1.887 -1.557,0.724 -1.139,0.392 -1.11,0.156 -1.474,0.015 -2.043,-0.133 -1.317,-0.274 -0.4,-0.265 1.04,0.129 1.789,0.206 1.653,0.027 1.341,-0.145 0.854,-0.311 0.312,-0.264 -0.084,-0.146 -1.828,-0.092 -1.537,-0.121 -1.394,-0.326 -1.237,-0.518 -1.066,-0.699 -0.879,-0.868 -0.679,-1.025 -0.463,-1.17 -0.233,-1.304 0.002,-1.206 0.18,-1.003 0.307,-0.629 0.184,-0.12 0.197,0.038 0.251,0.534 0.229,1.052 0.253,1.053 0.418,0.957 0.569,0.849 0.703,0.725 0.821,0.588 0.924,0.438 1.011,0.275 1.082,0.097 1.769,-0.261 2.474,-0.694 2.734,-0.983 2.548,-1.13 2.016,-1.415 2.619,-2.432 1.864,-1.831 0.926,-0.755 0.112,0.027 -0.123,0.295 -0.951,1.399 -0.5,0.708 -0.036,0.143 1.521,-1.546 2.858,-3.416 2.162,-3.408 0.79,-1.644 0.579,-1.572 0.356,-1.48 0.122,-1.363 -0.209,-2.283 -0.59,-2.242 -0.911,-2.117 -1.174,-1.914 -1.38,-1.63 -1.527,-1.263 -1.616,-0.818 -1.647,-0.29 -2.036,0.415 -2.857,1.045 -2.956,1.374 -2.336,1.405 -0.952,0.477 -1.226,-0.157 -1.299,-0.33 -1.099,1.486 -2.467,2.772 -2.868,2.505 -1.04,0.713 -0.29,0.083 1.583,-1.497 1.892,-1.797 1.939,-2.146 1.975,-2.393 -1.993,-1.445 -1.204,-0.967 -1.046,-1.063 -0.915,-1.215 -0.812,-1.421 -0.736,-1.6818 -0.688,-1.9973 -1.338,-5.1607 -0.207,-0.9158 1.535,0.8797 2.071,0.9865 2.824,1.1365 3.36,1.2432 -2.506,-0.1969 -3.44,-0.4649 -0.775,-0.1079 -0.056,0.2243 0.084,0.4733 0.342,1.1673 0.508,1.1957 1.406,2.3271 1.745,1.9933 0.932,0.7784 0.934,0.583 1.394,0.512 1.513,0.073 1.885,-0.391 2.511,-0.877 3.29,-1.1064 1.256,-0.1898 1.457,-0.0503 2.445,0.1595 0.942,0.2857 1.082,0.4913 1.822,1.142 1.703,1.416 1.726,2.089 2.148,3.115 2.214,3.594 1.923,3.523 2.226,4.007 2.344,3.167 0.275,0.344 -0.059,-0.019 -1.014,-1.035 -1,-1.168 -0.992,-1.396 -2.238,-3.905 -2.685,-4.841 -0.168,-0.141 0.017,0.263 0.554,1.7 0.783,2.507 0.612,2.621 0.397,2.519 0.141,2.199 -0.125,2.131 -0.327,2.664 -0.976,5.01 -0.486,2.607 0.138,0.599 0.394,0.633 1.412,1.266 1.999,1.097 2.293,0.726 1.28,0.258 -1.861,0.172 h -3.92 l -1.362,-0.063 -0.601,0.194 0.073,0.577 0.659,1.089 0.969,1.27 1.042,1.059 0.974,0.725 0.765,0.266 1.356,-0.202 2.091,-0.495 4.135,-1.285 3.677,-1.814 1.782,-1.1 1.501,-1.087 1.105,-0.795 0.204,-0.06 -0.018,0.143 -0.664,0.831 -1.446,1.447 -1.858,1.545 -2.235,1.559 -2.244,1.335 -1.884,0.872 -0.71,0.296 0.55,0.069 1.411,-0.462 2.269,-1.144 5.27,-2.733 2.96,-1.618 0.403,-0.276 0.167,0.06 -0.775,0.788 -1.929,1.537 -4.952,3.514 -2.165,1.165 -2.315,0.934 -2.424,0.771 0.103,1.215 0.399,1.58 0.891,2.023 1.24,2.187 1.446,2.067 1.902,2.304 0.115,0.074 -0.024,-0.121 -0.455,-0.82 -2.002,-3.861 -1.687,-3.998 -0.462,-1.67 0.113,-0.174 0.341,0.204 0.48,0.701 0.826,1.722 1.907,3.275 2.135,3.416 1.507,2.142 1.571,1.425 1.847,1.024 2.104,0.618 2.343,0.204 1.452,0.065 0.307,0.153 -0.735,0.164 -1.673,0.099 -1.755,-0.212 -2.138,-0.851 -2.284,-1.094 1.818,2.614 1.499,1.935 1.4,1.184 1.602,0.613 2.107,0.223 2.24,0.08 -2.147,-0.404 -2.373,-0.63 0.665,-0.159 1.916,-0.067 2.273,-0.114 2.151,-0.338 2.011,-0.559 1.85,-0.776 1.69,-0.726 0.011,0.151 -0.527,0.493 -0.8,0.67 1.12,-0.231 1.595,-0.457 1.608,-0.697 1.581,-0.907 1.513,-1.085 1.405,-1.229 1.256,-1.343 1.067,-1.424 0.838,-1.473 0.685,-1.652 0.582,-1.852 0.83,-4.141 0.351,-4.457 -0.172,-4.451 -0.368,-2.868 -0.474,-2.352 -0.631,-2.03 -0.835,-1.903 -0.748,-1.329 -0.831,-1.164 -0.922,-1.004 -1.022,-0.85 -1.128,-0.701 -1.243,-0.558 -1.364,-0.421 -1.493,-0.288 -1.537,-0.341 -1.376,-0.573 -1.235,-0.831 -1.117,-1.115 -1.022,-1.426 -0.948,-1.763 -0.896,-2.126 -0.866,-2.515 -0.702,-2.303 -0.216,-0.882 2.178,4.275 1.778,3.295 1.677,2.387 1.743,1.677 1.972,1.163 2.333,0.866 0.167,-0.005 -0.046,-0.1 -0.816,-0.503 -1.032,-0.771 -0.841,-0.986 -0.704,-1.14 1.426,-1.525 0.952,-1.172 0.889,-1.408 0.82,-1.628 0.745,-1.831 1.242,-4.206 0.871,-4.827 0.408,-4.605 0.027,-4.6739 -0.353,-4.7273 -0.73,-4.7668 -1.104,-4.7921 -1.476,-4.803 -1.844,-4.7997 -2.21,-4.7823 -2.985,-5.4085 -1.514,-2.3091 -1.565,-2.0919 -1.644,-1.9094 -1.751,-1.7614 -1.886,-1.6481 -2.049,-1.5696 -5.576,-3.6997 -5.665,-3.1144 -5.796,-2.5402 -5.967,-1.9776 -6.179,-1.4263 -6.43,-0.8863 -6.724,-0.3579 -7.057,0.1594 -4.35,0.3233 -4.111,0.46 -3.885,0.5994 -3.671,0.7417 -3.4695,0.8867 -3.2803,1.0346 -3.1033,1.1854 -2.9389,1.3388 -2.6828,1.2308 -1.5071,0.5113 -1.1625,0.2056 -1.6026,0.5321 -1.7001,0.7279 -1.4554,0.7931 -1.1759,0.8921 -1.1479,1.1331 -1.0671,1.3156 -0.9335,1.4396 -0.6571,1.235 -0.1744,0.5675 0.3077,-0.1011 0.7897,-0.7708 0.9761,-0.9183 1.0223,-0.6478 1.2254,-0.4543 1.5852,-0.3378 0.8643,-0.101 0.2731,0.0926 -1.2318,0.8034 -1.5327,0.9938 -1.5758,1.417 -1.5834,1.7881 -1.5557,2.1069 -1.4924,2.3736 -1.3936,2.5882 -1.2594,2.7506 -1.0897,2.8609 -0.7755,2.5199 -0.6154,2.5073 -0.4057,2.2625 -0.1463,1.7854 -0.3279,2.985 -0.8828,3.2377 -1.2868,3.0526 -0.7477,1.32 -0.792,1.1094 -1.0971,1.1534 -1.4114,1.1848 -3.5905,2.3629 -4.3222,2.1863 -4.7039,1.8084 -3.1064,1.0547 -1.6325,0.8018 -0.4111,0.4173 -0.2197,0.4871 -0.101,1.364 0.1467,1.58 0.475,1.541 0.8741,1.671 1.3444,1.971 1.161,1.698 0.6094,1.118 0.1266,1.07 -0.2526,1.143 -0.6304,1.212 -1.0065,1.276 -1.5479,1.693 1.1263,1.09 2.5807,3.069 1.1581,1.448 0.7421,0.702 0.315,0.23 0.131,0.312 -0.1055,0.157 -0.329,0.081 -1.4055,-0.061 -1.84,-0.194 -1.2479,1.801 -0.8604,1.444 -0.1457,0.46 0.0461,0.281 1.4599,2.025 0.8592,1.455 0.4021,1.187 0.0885,1.217 -0.2641,1.938 -0.8007,2.258 -0.9439,2.811 -0.309,2.552 0.0835,1.158 0.2421,1.07 0.4008,0.972 0.5593,0.868 0.9345,0.826 1.3292,0.82 1.4779,0.612 2.1003,0.668 5.7908,1.438 7.4479,1.476 8.5496,1.391 6.0505,1.019 1.7286,0.456 1.3409,0.525 1.822,1.168 1.8837,1.822 1.8961,2.422 1.8593,2.966 6.0482,11.701 3.125,6.375 1.6354,3.604 0.3665,0.776 0.293,0.183 0.3625,-2.05 0.5333,-4.59 1.015,-8.639 0.674,-3.267 0.983,-3.615 1.136,-3.449 1.136,-2.767 1.23,-2.444 0.67,-1.066 0.115,-0.007 -0.035,0.349 -0.538,1.776 -1.364,4.554 -1.157,5.251 -1.05,6.487 -1.046,8.266 -1.152,8.8 -1.0794,2.84 -2.1445,4.563 -2.3067,4.892 -0.5336,1.475 -0.2208,1.073 -0.1704,1.162 -0.1873,0.477 -0.8236,-0.866 v 0 m 86.5443,-40.614 0.8,-0.453 -0.8,0.217 -1.92,0.651 -1.12,0.433 1.12,-0.197 1.92,-0.651 v 0 m -19.61,-3.056 -1.74,-2.532 -0.759,-0.89 -0.412,-0.289 -1.221,-0.882 -2.236,-1.834 -0.872,-0.589 -0.35,-0.11 0.483,0.968 1.154,1.693 1.386,1.812 1.177,1.322 2.481,1.98 1.063,0.666 0.535,0.168 -0.689,-1.483 v 0 m -15.789,-20.494 -1.763,-2.16 -0.289,-0.415 -0.124,-0.032 0.166,1.406 0.286,1.221 0.44,0.789 0.655,0.424 0.93,0.127 h 0.94 l -1.241,-1.36 m 2.439,-4.865 -1.36,-0.792 -1.929,-1.055 -0.519,-0.239 -0.356,0.311 -0.339,0.726 0.094,0.497 0.557,0.306 1.052,0.155 2.24,0.177 0.56,-0.086 v 0 m 35.029,12.648 1.113,-2.51 0.78,-2.513 0.495,-2.706 0.254,-3.086 0.192,-2.721 0.217,-1.047 0.275,0.66 0.332,1.384 0.185,1.825 -0.124,2.002 -0.433,2.161 -0.737,2.304 -1.913,3.981 -1.017,1.754 -0.586,0.729 0.967,-2.217 v 0 m -35.933,-0.507 -0.332,-1.054 -0.238,-1.303 -0.069,-1.158 0.125,-0.008 0.262,0.29 0.364,0.746 0.297,1.095 0.161,1.107 -0.045,0.785 -0.08,0.077 -0.126,-0.069 -0.319,-0.508 v 0 m -51.576,-0.196 2.88,-1.306 2.1809,-1.073 1.6961,-1.068 1.324,-1.145 1.064,-1.303 1.305,-1.698 0.099,-0.062 -0.021,0.109 -0.46,0.786 -1.505,2.165 -1.402,1.506 -1.6129,1.119 -2.1365,1.007 -3.2285,1.147 -0.7015,0.139 0.5184,-0.323 v 0 m 63.04,-15.292 0.238,-0.246 0.572,-0.102 1.191,-0.194 1.77,-0.54 4.534,-1.862 2.122,-0.918 0.154,0.059 -0.293,0.363 -1.448,1.14 -2.034,1.001 -2.525,0.823 -2.921,0.609 -1.017,0.073 -0.343,-0.206 v 0 m 12.484,-5.514 -1.694,-0.403 -1.528,-0.631 -1.403,-0.881 -1.323,-1.153 -1.111,-1.244 -1.097,-1.462 -0.969,-1.514 -0.726,-1.401 -0.321,-0.799 0.029,-0.18 1.28,1.6 2.061,2.433 2.241,1.923 2.472,1.451 2.751,1.013 1.919,0.448 1.631,0.173 1.52,-0.099 1.589,-0.367 1.511,-0.384 0.441,0.019 -0.597,0.349 -1.604,0.604 -1.809,0.529 -1.604,0.248 -1.665,-0.014 -1.994,-0.258 v 0 m 8.716,0.145 h 1.12 l 0.129,0.057 -0.063,0.047 -0.626,0.043 -0.627,-0.043 -0.062,-0.047 0.129,-0.057 v 0 m -65.201,-4.696 -0.302,-0.828 0.182,-0.856 0.681,-0.911 1.191,-0.992 1.239,-1.078 0.544,-0.929 0.532,-1.915 0.3,-0.447 0.36,-0.187 0.517,0.175 0.387,0.657 0.21,1.007 -0.013,1.227 -0.326,1.302 -0.638,1.248 -0.864,1.063 -1.007,0.744 -1.072,0.555 0.96,-0.149 2.394,-0.682 1.484,-0.431 1.556,-0.284 1.282,-0.199 0.887,-0.31 0.647,-0.504 0.566,-0.779 0.486,-1.062 0.057,-1.031 -0.398,-1.17 -0.881,-1.481 -1.128,-1.99 -0.176,-0.808 -0.028,-0.998 0.134,-1.295 0.344,-1.314 0.527,-1.29 0.683,-1.225 0.811,-1.115 0.913,-0.963 0.987,-0.77 1.033,-0.533 1.421,-0.382 1.424,0.384 1.014,0.496 0.916,0.667 0.809,0.826 0.695,0.971 0.572,1.104 0.442,1.223 0.303,1.329 0.156,1.422 -0.017,2.404 -0.553,1.826 -0.598,1.164 -0.605,0.896 -0.377,0.334 0.084,-0.52 0.423,-1.354 0.268,-1.392 0.114,-1.422 -0.044,-1.446 -0.327,-1.931 -0.604,-2.013 -0.77,-1.782 -0.82,-1.237 -0.779,-0.582 -0.936,-0.325 -0.967,-0.045 -0.874,0.261 -1.009,0.711 -1.242,1.07 -1.054,1.042 -0.445,0.626 0.611,0.738 1.469,1.374 1.469,1.379 0.611,0.75 -0.222,0.17 -0.602,-0.145 -1.954,-1.09 -1.013,-0.645 -0.61,-0.209 -0.345,0.23 -0.215,0.673 -0.047,0.783 0.301,0.878 0.775,1.217 1.372,1.799 1.168,1.738 0.215,0.687 0.057,0.763 -0.131,1.052 -0.4,0.968 -0.68,0.9 -0.97,0.854 -0.564,0.319 -0.774,0.231 -2.642,0.295 -2.578,0.298 -1.78,0.439 -1.353,0.433 -1.215,0.104 -0.981,-0.22 -0.653,-0.54 v 0 m 10.412,-5.523 -1.076,-1.209 -0.814,-1.411 -0.351,-1.171 0.06,-0.358 0.25,-0.131 0.226,0.087 0.094,0.208 1.081,1.712 1.39,1.931 0.557,1.043 -0.037,0.18 -0.248,-0.055 -1.132,-0.826 v 0 m 56.431,-4.28 0.892,-7.36 0.633,-7.19 0.06,-6.4814 -0.186,-2.985 -0.33,-2.8203 -0.473,-2.6598 -0.618,-2.5035 -1.934,-5.4781 -2.865,-6.6705 -3.155,-6.4675 -2.806,-4.8691 -0.794,-1.2696 -0.163,-0.3381 0.032,-0.067 1.363,1.7177 2.336,3.5944 2.587,4.313 2.118,3.8733 2.36,5.1566 1.833,5.0571 1.311,5.0103 0.794,5.0157 0.283,5.0737 -0.222,5.1841 -0.722,5.347 -1.216,5.561 -1.136,3.84 -0.075,-0.393 0.093,-1.191 v 0 m -134.8029,-6.244 -1.4531,-2.056 -0.3369,-0.813 0.0063,-0.512 0.2764,-0.137 0.4292,0.245 1.3422,1.659 0.9515,1.619 0.2547,0.922 -0.1253,0.147 -0.2892,-0.092 -1.0558,-0.982 v 0 m 4.7957,-4.076 -0.5314,-1.677 -0.0118,-0.406 0.1415,-0.208 0.3231,0.248 0.4432,0.764 0.3919,0.933 0.1687,0.752 -0.1069,0.29 h -0.2552 l -0.3055,-0.246 -0.2576,-0.45 v 0 m 87.1352,-4.16 -0.61,-0.72 0.72,0.61 0.72,0.72 -0.049,0.108 -0.151,-0.063 -0.63,-0.655 v 0 m -2.05,-1.5591 -0.848,-0.7707 0.758,0.4742 1.219,0.9905 0.12,0.248 -0.125,-0.0191 -1.124,-0.9229 v 0 m -4.659,-2.9826 -5.825,-2.7695 -5.097,-2.4141 1.696,0.5373 3.55,1.5385 3.742,1.783 2.273,1.2708 0.448,0.4952 -0.787,-0.4412 v 0 m -15.821,-4.972 -2.531,-0.798 -1.6,-0.639 -1.478,-0.8914 -1.357,-1.1436 -1.236,-1.3956 -1.114,-1.6475 -0.992,-1.8994 -0.871,-2.1511 -0.749,-2.4027 -1.03,-3.0219 -1.376,-3.2181 -1.1437,-2.5832 -0.9563,-2.5112 -0.5607,-1.8423 -0.0669,-0.4836 0.1101,-0.0925 2.4115,3.5996 2.302,3.5952 0.061,-0.874 -0.071,-2.326 -0.48,-4.2809 -0.434,-1.9248 -0.566,-1.7909 -0.701,-1.6642 -0.8392,-1.5448 -0.9797,-1.4327 -1.123,-1.3279 -1.0828,-1.0821 -1.0511,-0.8559 -2.7103,-1.5381 -2.6287,-1.1862 -1.1698,-0.3692 0.0064,0.1179 0.4242,0.3174 2.1729,1.227 2.7446,1.5774 2.0415,1.5302 1.5035,1.6303 1.1308,1.8775 1.3255,3.5194 0.4102,1.5599 0.04,0.7616 -1.4358,-1.7964 -1.6269,-2.1225 -0.6881,-0.8998 -0.3683,-0.7022 0.733,0.64 0.3744,0.3088 0.1066,0.0073 L 96.8078,57.6 95.9132,56.2732 94.9474,55.148 93.7636,54.0737 92.2147,52.9001 89.9118,51.4419 87.6303,50.3308 85.599,49.6613 l -1.5525,-0.1335 -1.3136,0.1762 0.5509,-0.772 0.9508,-1.5318 -0.2232,0.0264 -0.6874,0.5197 -0.8469,0.5931 -0.4467,0.0944 -0.0039,-0.3777 0.4814,-0.8229 0.8048,-0.9219 0.8885,-0.511 1.1284,-0.1515 1.5242,0.1569 2.8934,0.7783 3.0835,1.342 2.9895,1.7606 2.6113,2.034 1.8885,1.9045 1.514,1.9394 1.172,2.0244 0.865,2.1596 0.454,1.5916 0.287,1.6843 0.346,5.8956 0.258,4.8809 0.201,1.6804 0.296,1.326 0.424,1.0862 0.585,0.9606 1.795,2.0021 1.234,1.3467 0.297,0.5988 -0.628,-0.1688 -1.535,-0.9559 -1.523,-0.8257 0.915,2.1567 1.261,2.082 1.501,1.791 1.759,1.5203 2.039,1.2699 1.935,1.1968 -0.003,0.0907 -0.202,0.0018 -1.007,-0.2742 v 0 m 1.741,-1.784 -0.433,-0.3792 0.532,0.2305 0.72,0.4977 -0.036,0.1223 -0.129,-0.0088 -0.654,-0.4625 v 0 M 87.36,77.901 85.1306,76.3545 82.5701,74.8022 80.107,73.4888 l -1.9369,-0.83 -2.1041,-0.4622 -2.4352,-0.1985 -2.2964,0.0771 -1.688,0.3648 -1.0925,0.617 -1.1479,0.8656 -1.3081,0.92 0.017,-0.567 0.3921,-1.0128 0.6046,-1.112 0.6544,-0.8645 1.0097,-0.7019 1.3639,-0.4201 1.7555,-0.1451 2.1849,0.1232 1.6587,0.2498 1.6034,0.398 1.5658,0.5551 1.5456,0.7217 3.1014,1.9795 3.2321,2.756 2.173,2.2026 -1.6,-1.1041 v 0 M 166.999,56.4 166.72,56 l 0.4,0.2792 0.518,0.4972 0.039,0.136 -0.118,0.0476 -0.56,-0.56 v 0 m -4.58,-5.8086 -1.238,-0.9954 -2.6,-1.7666 -5.621,-3.4454 -5.125,-2.3914 -5.595,-2.1787 -0.96,-0.35 0.8,0.1065 1.977,0.5709 2.919,1.0855 3.082,1.2908 2.461,1.1868 3.411,2.0339 3.539,2.3488 2.64,1.9481 0.66,0.6002 0.05,0.2316 -0.4,-0.2756 v 0 m -87.539,-0.627 0.3351,-0.5224 0.7957,-0.759 0.942,-0.7267 0.7741,-0.4258 0.6642,-0.0497 0.6315,0.2095 0.4719,0.3988 0.1855,0.5181 -0.0768,0.2994 -0.2775,0.2114 -1.4394,0.2847 -1.4448,0.2442 -0.9552,0.2911 -0.4365,0.1502 -0.1698,-0.1238 v 0 m 5.7853,-0.8711 0.0641,-0.3322 0.1292,0.1389 0.0619,0.3534 -0.0872,0.2599 -0.1291,-0.0436 -0.0389,-0.3764 v 0 m 0.0406,-1.8183 -0.1939,-0.7465 0.0936,-0.4811 0.3926,-0.2323 0.7026,-1e-4 0.8188,0.105 -0.7166,1.1817 -0.7165,1.1816 -0.3806,-1.0083 M 82.88,45.44 82.9795,45.214 83.2189,45.12 83.4001,45.214 83.36,45.44 83.0211,45.76 82.88,45.44 v 0 m 57.76,-4.3629 -4,-1.234 -1.72,-0.541 -0.367,-0.1699 0.051,-0.0688 1.325,0.2236 2.144,0.5661 2.189,0.6846 1.456,0.579 0.519,0.3284 -0.038,0.1017 -1.559,-0.4697 v 0 m -0.54,-1.9357 0.353,-0.0619 0.26,0.0872 -0.043,0.1291 -0.377,0.0389 -0.332,-0.0641 0.139,-0.1292 v 0 m -7.36,-0.32 0.353,-0.0619 0.26,0.0872 -0.043,0.1291 -0.377,0.0389 -0.332,-0.0641 0.139,-0.1292 v 0"
       id="path1640" />
  </g>
</svg>
