<?xml version="1.0" encoding="UTF-8" standalone="no"?>
<!-- Created with Inkscape (http://www.inkscape.org/) -->

<svg
   version="1.1"
   id="svg2"
   width="94.400002"
   height="62.720001"
   viewBox="0 0 94.400002 62.720001"
   sodipodi:docname="las4.png"
   xmlns:inkscape="http://www.inkscape.org/namespaces/inkscape"
   xmlns:sodipodi="http://sodipodi.sourceforge.net/DTD/sodipodi-0.dtd"
   xmlns="http://www.w3.org/2000/svg"
   xmlns:svg="http://www.w3.org/2000/svg">
  <defs
     id="defs6" />
  <sodipodi:namedview
     id="namedview4"
     pagecolor="#ffffff"
     bordercolor="#000000"
     borderopacity="0.25"
     inkscape:showpageshadow="2"
     inkscape:pageopacity="0.0"
     inkscape:pagecheckerboard="0"
     inkscape:deskcolor="#d1d1d1"
     showgrid="false"
     inkscape:zoom="12.563775"
     inkscape:cx="44.691981"
     inkscape:cy="31.399798"
     inkscape:window-width="1920"
     inkscape:window-height="1016"
     inkscape:window-x="0"
     inkscape:window-y="0"
     inkscape:window-maximized="1"
     inkscape:current-layer="g8" />
  <g
     inkscape:groupmode="layer"
     inkscape:label="Image"
     id="g8">
    <path
       style="fill:#000000;stroke:#000000;stroke-width:0.32;stroke-opacity:1"
       d="m 77.6,50.8923 -4.48,-1.6343 -4.144,-1.634 -0.7516,-0.264 -1.5381,-0.5174 -0.9719,-0.3372 -0.6038,0.2224 -0.3556,0.2233 0.0901,-0.3932 0.022,-0.4369 -0.6547,0.0273 -0.6458,0.0179 -0.2066,-0.2906 -0.0669,-0.3191 -0.2189,-0.0898 -1.003,0.518 -0.5492,0.3332 0.1552,-0.2826 0.2575,-0.4552 -0.0922,-0.2251 -0.3833,0.0289 -0.6159,0.3072 -0.6567,0.379 0.2526,-0.3956 0.2477,-0.4613 -0.5088,-0.0932 -1.2877,0.3145 -0.448,0.1392 0.0252,-0.4548 0.0614,-0.346 -0.133,-0.1327 -1.3198,0.3208 -1.7827,0.4407 -0.027,-0.1584 0.4581,-0.4203 0.7554,-0.617 -1.44,0.1743 -1.1353,0.0744 0.0149,-0.1305 0.3204,-0.2767 0.4426,-0.4254 -0.3626,-0.0919 -0.3955,-0.1038 -0.1645,-0.2353 -0.1378,-0.1276 -0.407,-0.0613 -1.5845,0.0781 -1.6038,0.0872 -0.2927,-0.0769 -0.0046,-0.1614 0.432,-0.2607 0.7184,-0.1085 0.7186,-0.1088 0.4326,-0.2617 0.019,-0.162 -0.2117,-0.0811 -1.2195,0.067 -1.22,0.05 L 48.79,41.9039 48.3865,41.6893 47.68,41.6 47.0087,41.5021 46.5793,41.2833 46.5154,41.0556 46.9411,40.9311 47.0838,40.8962 47.0445,40.8226 46.48,40.602 45.7455,40.2986 45.44,39.9909 45.3695,39.7884 45.2,39.7382 44.6909,39.7363 44.0153,39.565 42.4775,38.8847 41.2124,38.0381 40.8776,37.6589 40.8457,37.3661 40.8974,37.18 40.69,37.2491 40.3635,37.1673 39.7509,36.7464 37.8869,35.0585 35.4526,32.64 h -4.1154 l -3.3908,0.1094 -1.7755,0.3533 -6.3899,2.4018 -4.8296,1.5326 -0.055,-0.1254 0.2285,-0.2278 1.1839,-0.6991 4.4139,-1.9269 L 24.0054,32.8 13.2027,32.6336 2.4,32.4672 l 11.3899,-0.0736 7.1966,-0.0695 4.0555,-0.2402 1.396,-0.2556 1.266,-0.3842 3.016,-1.2683 1.8554,-0.8547 1.046,-0.6234 0.4309,-0.5457 0.0096,-0.6218 -0.1552,-0.8102 0.3879,0.7477 0.4911,0.5629 0.8032,0.0036 1.5485,-0.6644 2.1233,-1.3143 2.1531,-1.5937 1.6381,-1.5026 0.9487,-1.2197 0.9523,-1.5281 1.7989,-3.7016 1.4631,-4.0968 0.8934,-3.933 0.6332,-3.1916 0.315,-2.12647 0.0406,-0.21047 0.2769,-0.17149 0.3561,-0.07216 0.2786,0.08757 0.1701,0.54045 -0.0377,1.12615 -0.7278,4.29781 -0.8679,3.74101 -1.007,3.3155 -1.1597,2.913 -1.3265,2.5339 -1.5072,2.1778 -1.7018,1.8448 -1.9104,1.535 -2.1328,1.2484 -1.6385,0.8791 -0.6815,0.5012 0.1199,0.2932 0.3465,0.3021 1.2949,0.6026 1.967,0.5546 2.4825,0.451 2.0504,0.1498 1.6149,-0.3387 1.556,-0.3587 1.6363,0.0016 1.8046,0.4053 2.0605,0.8519 2.4045,1.3418 2.8361,1.8748 7.3185,5.5213 3.2561,2.4303 3.5529,2.452 2.9804,1.8953 1.5388,0.7603 0.5125,0.2501 1.9474,1.1727 1.7196,1.0436 -1.8407,-0.5325 -1.9687,-0.6103 -0.1192,0.0377 0.0233,0.1137 0.4605,0.4556 0.4834,0.575 L 77.6,50.8922 v 10e-5 M 72.16,47.36 71.9084,47.1354 71.5811,47.0449 71.4365,47.1336 71.68,47.36 72.2426,47.658 72.16,47.36 v 0 M 34.8243,31.3777 34.1577,30.7125 33.6,30.4364 30.72,31.36 l -2.4,0.9226 3.6243,0.0187 3.6244,0.0187 -0.7444,-0.9423 M 79.9208,41.3616 77.8184,36.7564 75.0389,29.76 72.4926,23.665 71.2995,21.3738 70.1243,19.5381 68.9404,18.121 67.7213,17.086 66.4403,16.3964 65.0709,16.0155 63.52,15.7553 l 1.68,-0.0377 1.1865,-0.0845 0.4935,-0.1502 -1.0691,-1.68 -1.2846,-1.9469 0.0048,-0.0856 0.1355,0.0753 0.6629,0.6343 3.7395,4.4612 3.1896,4.3946 2.1915,4.5537 2.3198,5.9505 1.269,3.52 2.7977,7.4301 -0.9158,-1.4285 v 0"
       id="path293" />
  </g>
</svg>
